<svg width="260" height="374" viewBox="0 0 260 374" fill="none" xmlns="http://www.w3.org/2000/svg">
<path d="M39.0918 260.5L97.955 251.631L235.302 290.062L129.651 305.972L39.0918 260.5Z" fill="#414141"/>
<path d="M54.1855 83.1241L129.651 64.6475L174.931 112.687L147.063 119.513L54.1855 83.1241Z" fill="#414141"/>
<path d="M24 171.813L98.5737 159.639L205.117 201.376L157.451 209.156L24 171.813Z" fill="#414141"/>
<path d="M54.1855 83.124L205.117 142.249V201.374L54.1855 142.249V83.124Z" fill="#96E150"/>
<path d="M129.65 24L174.93 53.5626V112.688L129.65 83.1251V24Z" fill="#96E150"/>
<path d="M24 171.812L235.304 230.937V290.062L24 230.937V171.812Z" fill="#1E96FF"/>
<path d="M39.0918 260.5L129.651 290.062V349.187L39.0918 319.625V260.5Z" fill="#795CE5"/>
</svg>
